<svg version="1.1" id="Layer_1" xmlns="http://www.w3.org/2000/svg" xmlns:xlink="http://www.w3.org/1999/xlink" x="0px" y="0px"
	 width="100%" viewBox="0 0 1280 800" enable-background="new 0 0 1280 800" xml:space="preserve">
<path fill="#47704C" opacity="1.000000" stroke="none" 
	d="
M795.000000,801.000000 
	C530.031738,801.000000 265.563477,801.000000 1.047604,801.000000 
	C1.047604,534.397095 1.047604,267.794128 1.047604,1.095598 
	C427.551727,1.095598 854.103516,1.095598 1280.827637,1.095598 
	C1280.827637,267.666565 1280.827637,534.333252 1280.827637,801.000000 
	C1119.127197,801.000000 957.313599,801.000000 795.000000,801.000000 
M44.862103,414.930023 
	C46.967590,424.949219 49.073074,434.968414 51.132183,445.578766 
	C51.409103,446.057037 51.686028,446.535309 52.034969,447.592987 
	C52.296726,448.077515 52.558487,448.562073 52.945606,449.798370 
	C57.402157,458.568390 61.858707,467.338440 66.508980,476.814301 
	C68.293251,479.208832 70.077515,481.603363 72.161812,484.603882 
	C73.528870,486.419983 74.895935,488.236053 76.266151,490.448456 
	C76.412041,490.729126 76.636780,490.825012 77.452812,491.009430 
	C77.628716,491.090302 77.804626,491.171173 78.034386,491.836975 
	C78.691910,492.550568 79.349434,493.264130 80.298080,494.584045 
	C84.178230,498.090027 88.058372,501.596039 92.246223,505.702728 
	C102.150269,512.424561 111.461502,520.333313 122.075211,525.634216 
	C148.524216,538.843811 176.792465,542.815918 205.990921,537.757568 
	C221.648148,535.045227 236.840240,530.510193 250.258972,521.476685 
	C257.866608,516.355225 265.406555,511.133270 273.588898,505.691193 
	C278.757019,500.130676 283.925171,494.570129 289.518036,488.879364 
	C289.788147,488.712708 289.945557,488.472260 290.602417,487.827057 
	C291.173645,486.486633 291.744843,485.146210 292.957703,483.506683 
	C294.672302,481.374908 296.386871,479.243103 298.680634,476.745331 
	C303.505005,466.854645 308.329407,456.963989 313.684143,446.580566 
	C317.997772,433.739014 320.849121,420.633179 320.958801,406.078339 
	C320.633179,397.471985 320.961121,388.775208 319.787109,380.286194 
	C318.738586,372.704712 316.031647,365.352539 314.027466,357.118317 
	C312.680542,353.419006 311.700317,349.530609 309.910583,346.059631 
	C306.148712,338.763702 301.961792,331.686981 297.873291,323.780609 
	C294.946716,319.767700 292.209381,315.599182 289.060333,311.769196 
	C276.331360,296.287659 260.565369,284.508179 242.687500,275.791992 
	C229.596237,269.409424 215.658524,265.498444 201.036270,263.629333 
	C185.886261,261.692749 170.959274,261.981354 156.039124,264.778137 
	C141.629547,267.479218 128.128830,272.509918 115.242325,279.694458 
	C99.074989,288.708160 85.235313,300.176727 73.400169,315.214844 
	C58.470467,334.406799 48.849129,355.885468 45.155834,380.889618 
	C44.872730,383.354767 44.339199,385.821228 44.351841,388.284851 
	C44.395885,396.868317 44.628998,405.450775 44.862103,414.930023 
M1202.148926,400.057098 
	C1209.161743,404.277496 1209.809570,411.404877 1209.909546,418.371490 
	C1210.165527,436.200531 1209.928711,454.036316 1210.108765,471.867218 
	C1210.125732,473.546570 1211.628052,476.615295 1212.556519,476.660461 
	C1220.482666,477.045776 1228.435669,476.881195 1236.571411,476.881195 
	C1236.755249,475.170715 1236.981201,474.043213 1236.982178,472.915497 
	C1237.003052,449.916321 1237.005493,426.917175 1236.979126,403.918030 
	C1236.977661,402.597565 1236.803711,401.255615 1236.533691,399.960419 
	C1231.096436,373.868896 1205.204346,366.891968 1184.676880,374.646423 
	C1178.595215,376.943848 1173.601440,382.121368 1168.120361,385.971130 
	C1158.547241,370.995575 1131.747681,364.204071 1110.286377,383.269104 
	C1110.179688,381.928650 1109.874634,380.795624 1110.042236,379.737488 
	C1110.777588,375.095184 1108.525513,374.052032 1104.355225,374.264893 
	C1098.703369,374.553436 1093.018677,374.514832 1087.361938,374.280060 
	C1083.400391,374.115662 1082.150024,375.674377 1082.191284,379.536743 
	C1082.342651,393.669739 1082.223755,407.805450 1082.227173,421.940155 
	C1082.231201,438.567810 1082.266724,455.195465 1082.261963,471.823120 
	C1082.261230,474.250854 1082.134033,476.827362 1085.503418,476.867340 
	C1093.784424,476.965668 1102.067139,476.899536 1111.003662,476.899536 
	C1111.003662,474.349365 1111.003540,472.403381 1111.003662,470.457397 
	C1111.003662,453.291351 1110.804565,436.121338 1111.143066,418.961975 
	C1111.228394,414.632965 1112.347656,410.018097 1114.181274,406.089722 
	C1118.909180,395.960052 1137.086182,394.734955 1142.728027,404.310089 
	C1145.206177,408.515991 1146.672363,413.900330 1146.808228,418.799255 
	C1147.288940,436.118652 1146.986450,453.459503 1147.009766,470.792206 
	C1147.012451,472.714355 1147.201416,474.636261 1147.325195,476.956543 
	C1155.044189,476.956543 1162.198853,476.727478 1169.329346,477.041809 
	C1173.661987,477.232819 1175.113403,475.936035 1175.054321,471.447754 
	C1174.817993,453.451508 1175.573120,435.421997 1174.746338,417.460724 
	C1174.178467,405.120087 1186.222900,392.894379 1202.148926,400.057098 
M417.996002,456.499725 
	C417.996735,461.661133 418.238068,466.837311 417.922058,471.979279 
	C417.669312,476.091980 419.358582,477.156982 423.152679,477.018188 
	C429.471039,476.787048 435.818878,476.691376 442.125946,477.044617 
	C446.689270,477.300232 447.786530,475.454193 447.734436,471.249146 
	C447.550781,456.433289 447.756042,441.612854 447.607452,426.796234 
	C447.570862,423.149109 448.689423,421.868774 452.453552,421.875854 
	C462.423401,421.894653 472.514801,422.389496 482.337921,421.064697 
	C500.026062,418.679260 512.716736,408.827942 518.478394,391.682068 
	C524.117737,374.900269 521.399353,359.101593 509.800751,345.462830 
	C500.331116,334.327545 487.329956,330.457703 473.318329,330.093262 
	C457.345520,329.677856 441.353516,329.967743 425.369995,330.007935 
	C417.141937,330.028625 418.014771,329.179047 418.008667,337.620605 
	C417.980194,376.913666 417.996002,416.206757 417.996002,456.499725 
M538.044800,387.500000 
	C538.045593,415.496979 538.108826,443.494232 537.978088,471.490570 
	C537.959106,475.562469 539.174805,477.213379 543.394653,477.021637 
	C549.381653,476.749542 555.403442,476.709930 561.385132,477.035553 
	C565.731812,477.272186 567.159485,475.907532 567.099121,471.431793 
	C566.860901,453.770203 566.872498,436.101776 567.107300,418.440094 
	C567.156677,414.726562 567.954773,410.772034 569.445129,407.384888 
	C571.953308,401.684082 576.801514,398.423737 583.111877,398.046326 
	C590.057861,397.630920 597.153931,398.527008 599.903625,405.873047 
	C601.983337,411.429321 602.723083,417.726318 602.866211,423.722137 
	C603.252014,439.877930 602.934326,456.049622 603.104919,472.212799 
	C603.121338,473.770905 604.543945,476.625702 605.402893,476.660217 
	C613.803955,476.997711 622.223877,476.863556 630.486145,476.863556 
	C630.747070,475.537292 630.925964,475.051239 630.926453,474.565033 
	C630.949646,451.068176 631.263245,427.565979 630.853333,404.076447 
	C630.603821,389.774170 618.114380,375.808411 604.081970,372.979004 
	C590.997681,370.340759 578.700378,372.092529 567.002136,381.092255 
	C567.002136,378.383942 567.002258,376.634827 567.002197,374.885712 
	C567.001343,360.553894 566.902649,346.220917 567.067078,331.890991 
	C567.109314,328.209320 565.942627,326.834320 562.210144,326.985291 
	C556.387024,327.220795 550.547302,327.039490 544.714600,327.046692 
	C538.065002,327.054901 538.050781,327.060608 538.047852,333.505554 
	C538.039856,351.170380 538.044922,368.835175 538.044800,387.500000 
M964.283752,394.825409 
	C957.776611,405.126740 955.424072,416.333710 955.886658,428.498718 
	C956.402832,442.071899 960.919739,453.876221 970.224304,463.537842 
	C982.092773,475.861755 996.873474,480.381256 1013.929260,479.168335 
	C1026.084229,478.303894 1036.471558,474.061859 1045.387451,466.052856 
	C1061.225464,451.825806 1064.913696,433.292297 1061.196167,413.645813 
	C1055.555298,383.834167 1030.055298,367.535248 997.943848,372.578003 
	C983.909424,374.782013 972.766113,382.389252 964.283752,394.825409 
M742.004028,454.495270 
	C741.666260,436.875671 741.960632,419.212982 740.763489,401.651947 
	C739.994019,390.364319 733.036377,382.296631 722.929932,376.855804 
	C711.716431,370.819031 699.682007,371.221619 687.816406,372.388062 
	C672.987854,373.845764 657.911255,385.099152 654.423828,400.983521 
	C653.682312,404.360962 654.369873,406.031250 657.589722,406.735718 
	C663.738037,408.080933 669.872314,409.519836 676.070984,410.576294 
	C677.092773,410.750427 679.295898,409.330139 679.461609,408.385162 
	C681.740967,395.387512 697.727478,392.070496 708.087463,397.150269 
	C712.171753,399.152924 714.079956,403.104095 713.815308,407.479828 
	C713.544983,411.949829 710.080688,413.191620 706.037537,413.518311 
	C702.737610,413.784973 699.440430,414.359283 696.202820,415.072937 
	C687.020752,417.096893 677.501770,418.290894 668.789612,421.591278 
	C654.405029,427.040466 647.511719,444.424835 653.364380,458.499084 
	C660.649353,476.017639 676.770203,481.756012 695.495667,478.195312 
	C702.593201,476.845734 709.060974,472.184296 715.815369,469.032593 
	C715.882202,469.704895 715.582825,471.718506 716.359497,473.147125 
	C717.201660,474.696106 718.984375,476.678406 720.464294,476.771881 
	C726.771362,477.170227 733.119080,476.874847 739.450073,476.966949 
	C742.425659,477.010254 743.121521,475.535065 742.942017,472.892487 
	C742.548462,467.098053 742.307373,461.293213 742.004028,454.495270 
M861.002563,419.502991 
	C860.472900,412.744537 860.562805,405.868378 859.305054,399.248230 
	C854.149292,372.110718 824.271545,366.638855 807.273499,375.957123 
	C803.490906,378.030670 799.993652,380.624634 795.916931,383.269714 
	C795.916931,380.976685 796.173767,379.104919 795.820557,377.356415 
	C795.608826,376.308136 794.462646,374.650482 793.704834,374.632935 
	C785.281372,374.437897 776.851746,374.510040 767.997375,374.510040 
	C767.997375,381.386505 767.997314,387.533936 767.997375,393.681366 
	C767.997803,419.678406 768.079895,445.675995 767.916016,471.671997 
	C767.889587,475.866028 769.246704,477.239166 773.352600,477.025024 
	C778.837036,476.739044 784.347595,476.959229 789.846985,476.954803 
	C796.938599,476.949097 796.948364,476.946014 796.953674,469.805756 
	C796.967468,451.307922 796.875854,432.809326 797.023438,414.312592 
	C797.089417,406.045044 804.244263,398.666382 812.310364,398.009735 
	C822.662598,397.166962 830.171570,401.999207 831.834412,410.912262 
	C832.561340,414.808990 832.916626,418.826416 832.946838,422.792786 
	C833.068481,438.790009 832.987183,454.788788 833.011108,470.786896 
	C833.013977,472.709320 833.201843,474.631470 833.325378,476.955688 
	C840.707703,476.955688 847.517700,476.962097 854.327698,476.953888 
	C860.984192,476.945831 860.997131,476.939270 861.000000,470.496246 
	C861.007568,453.831482 861.002563,437.166687 861.002563,419.502991 
M896.213074,460.052399 
	C898.332764,463.208099 899.921265,466.957031 902.665894,469.414856 
	C913.479248,479.098328 926.301392,479.800323 939.631592,476.256927 
	C941.046814,475.880768 942.600586,473.327179 942.803284,471.630035 
	C943.274109,467.688141 942.961670,463.652313 942.960388,459.654541 
	C942.957947,451.992584 942.956421,452.006805 935.498108,452.168121 
	C933.836426,452.204102 932.162292,452.201172 930.510193,452.044525 
	C925.235657,451.544281 922.883362,449.439209 922.804565,444.148254 
	C922.603638,430.659027 922.747375,417.164978 922.668213,403.673370 
	C922.651489,400.822906 923.925781,399.898804 926.620178,399.983276 
	C930.613770,400.108490 934.618835,399.887726 938.610962,400.033997 
	C941.890747,400.154175 943.050171,398.689484 942.984192,395.547485 
	C942.865417,389.886475 942.888672,384.220367 942.971619,378.558136 
	C943.014771,375.609497 941.751343,374.279846 938.797180,374.330414 
	C934.967346,374.395935 931.128357,374.180511 927.306091,374.358795 
	C923.856812,374.519714 922.554932,373.159485 922.634460,369.703156 
	C922.795410,362.710968 922.575745,355.710449 922.703186,348.716858 
	C922.761658,345.510498 921.544861,344.223450 918.310974,344.297913 
	C912.151062,344.439758 905.983582,344.430420 899.823303,344.296265 
	C896.956299,344.233856 895.977600,345.468292 896.027100,348.169159 
	C896.106323,352.498199 896.154907,356.835938 895.972656,361.159760 
	C895.648010,368.862671 891.260803,373.380157 883.626465,374.085663 
	C881.173340,374.312378 878.711243,374.443085 876.176147,374.623199 
	C876.176147,383.159668 876.176147,391.394287 876.176147,400.180756 
	C882.274292,400.180756 887.858398,400.180756 893.992310,400.180756 
	C893.992310,402.517853 893.992310,404.312164 893.992371,406.106476 
	C893.992493,419.432373 893.836243,432.761169 894.081116,446.082581 
	C894.162415,450.505676 895.274414,454.909790 896.213074,460.052399 
z"/>
<path fill="#010002" opacity="1.000000" stroke="none" 
	d="
M1201.785889,399.915955 
	C1186.222900,392.894379 1174.178467,405.120087 1174.746338,417.460724 
	C1175.573120,435.421997 1174.817993,453.451508 1175.054321,471.447754 
	C1175.113403,475.936035 1173.661987,477.232819 1169.329346,477.041809 
	C1162.198853,476.727478 1155.044189,476.956543 1147.325195,476.956543 
	C1147.201416,474.636261 1147.012451,472.714355 1147.009766,470.792206 
	C1146.986450,453.459503 1147.288940,436.118652 1146.808228,418.799255 
	C1146.672363,413.900330 1145.206177,408.515991 1142.728027,404.310089 
	C1137.086182,394.734955 1118.909180,395.960052 1114.181274,406.089722 
	C1112.347656,410.018097 1111.228394,414.632965 1111.143066,418.961975 
	C1110.804565,436.121338 1111.003662,453.291351 1111.003662,470.457397 
	C1111.003540,472.403381 1111.003662,474.349365 1111.003662,476.899536 
	C1102.067139,476.899536 1093.784424,476.965668 1085.503418,476.867340 
	C1082.134033,476.827362 1082.261230,474.250854 1082.261963,471.823120 
	C1082.266724,455.195465 1082.231201,438.567810 1082.227173,421.940155 
	C1082.223755,407.805450 1082.342651,393.669739 1082.191284,379.536743 
	C1082.150024,375.674377 1083.400391,374.115662 1087.361938,374.280060 
	C1093.018677,374.514832 1098.703369,374.553436 1104.355225,374.264893 
	C1108.525513,374.052032 1110.777588,375.095184 1110.042236,379.737488 
	C1109.874634,380.795624 1110.179688,381.928650 1110.286377,383.269104 
	C1131.747681,364.204071 1158.547241,370.995575 1168.120361,385.971130 
	C1173.601440,382.121368 1178.595215,376.943848 1184.676880,374.646423 
	C1205.204346,366.891968 1231.096436,373.868896 1236.533691,399.960419 
	C1236.803711,401.255615 1236.977661,402.597565 1236.979126,403.918030 
	C1237.005493,426.917175 1237.003052,449.916321 1236.982178,472.915497 
	C1236.981201,474.043213 1236.755249,475.170715 1236.571411,476.881195 
	C1228.435669,476.881195 1220.482666,477.045776 1212.556519,476.660461 
	C1211.628052,476.615295 1210.125732,473.546570 1210.108765,471.867218 
	C1209.928711,454.036316 1210.165527,436.200531 1209.909546,418.371490 
	C1209.809570,411.404877 1209.161743,404.277496 1201.785889,399.915955 
z"/>
<path fill="#5344BC" opacity="1.000000" stroke="none" 
	d="
M73.938179,314.782501 
	C85.235313,300.176727 99.074989,288.708160 115.242325,279.694458 
	C128.128830,272.509918 141.629547,267.479218 156.039124,264.778137 
	C170.959274,261.981354 185.886261,261.692749 201.036270,263.629333 
	C215.658524,265.498444 229.596237,269.409424 242.687500,275.791992 
	C260.565369,284.508179 276.331360,296.287659 289.060333,311.769196 
	C292.209381,315.599182 294.946716,319.767700 297.754578,324.323059 
	C295.127136,323.566101 292.654022,322.189789 290.092621,321.004242 
	C289.027802,320.511322 287.697021,320.023102 286.621765,320.230499 
	C283.525635,320.827728 280.154846,321.196259 277.528839,322.738800 
	C274.097321,324.754578 270.458557,323.502228 267.200958,324.525482 
	C264.282196,325.442291 262.988159,324.798096 261.565521,322.414307 
	C259.112854,318.304749 255.030228,317.075104 252.193466,320.403015 
	C248.365311,324.893890 243.737183,322.681183 239.641846,322.876251 
	C236.355423,323.032745 233.249634,321.919006 230.422943,324.663788 
	C229.633820,325.430023 227.921707,325.377594 226.618118,325.457306 
	C222.763046,325.692902 218.900528,325.806824 214.708252,325.862946 
	C203.150543,319.516846 191.414734,314.815582 178.520905,313.310852 
	C159.380966,311.077179 141.288757,314.469757 123.814011,322.857178 
	C118.837097,319.737335 114.317558,319.357971 109.056213,321.986450 
	C106.688599,323.169220 103.052063,322.309418 100.114738,321.739838 
	C95.516098,320.848175 91.011414,318.667847 86.558479,322.085541 
	C82.648796,325.086273 78.706627,322.904480 75.277199,321.392731 
	C74.090225,320.869507 74.343025,317.080048 73.938179,314.782501 
M220.682404,320.353271 
	C220.541595,320.131195 220.400787,319.909119 220.259995,319.687042 
	C220.325943,319.938721 220.391907,320.190430 220.682404,320.353271 
z"/>
<path fill="#010002" opacity="1.000000" stroke="none" 
	d="
M417.996002,455.999756 
	C417.996002,416.206757 417.980194,376.913666 418.008667,337.620605 
	C418.014771,329.179047 417.141937,330.028625 425.369995,330.007935 
	C441.353516,329.967743 457.345520,329.677856 473.318329,330.093262 
	C487.329956,330.457703 500.331116,334.327545 509.800751,345.462830 
	C521.399353,359.101593 524.117737,374.900269 518.478394,391.682068 
	C512.716736,408.827942 500.026062,418.679260 482.337921,421.064697 
	C472.514801,422.389496 462.423401,421.894653 452.453552,421.875854 
	C448.689423,421.868774 447.570862,423.149109 447.607452,426.796234 
	C447.756042,441.612854 447.550781,456.433289 447.734436,471.249146 
	C447.786530,475.454193 446.689270,477.300232 442.125946,477.044617 
	C435.818878,476.691376 429.471039,476.787048 423.152679,477.018188 
	C419.358582,477.156982 417.669312,476.091980 417.922058,471.979279 
	C418.238068,466.837311 417.996735,461.661133 417.996002,455.999756 
M457.542816,356.004059 
	C456.045746,356.004547 454.529419,356.159454 453.055267,355.975922 
	C448.998993,355.471008 447.478119,356.987396 447.585724,361.216003 
	C447.843872,371.356354 447.702362,381.507751 447.656342,391.654388 
	C447.644379,394.290436 448.027588,396.149414 451.399750,396.072693 
	C458.715088,395.906219 466.049133,396.265045 473.351868,395.915283 
	C482.194366,395.491760 489.195160,388.964111 490.853760,380.243317 
	C492.613861,370.988800 488.542816,362.748199 480.547882,358.538452 
	C473.468140,354.810516 465.915527,356.386078 457.542816,356.004059 
z"/>
<path fill="#000001" opacity="1.000000" stroke="none" 
	d="
M538.044800,387.000000 
	C538.044922,368.835175 538.039856,351.170380 538.047852,333.505554 
	C538.050781,327.060608 538.065002,327.054901 544.714600,327.046692 
	C550.547302,327.039490 556.387024,327.220795 562.210144,326.985291 
	C565.942627,326.834320 567.109314,328.209320 567.067078,331.890991 
	C566.902649,346.220917 567.001343,360.553894 567.002197,374.885712 
	C567.002258,376.634827 567.002136,378.383942 567.002136,381.092255 
	C578.700378,372.092529 590.997681,370.340759 604.081970,372.979004 
	C618.114380,375.808411 630.603821,389.774170 630.853333,404.076447 
	C631.263245,427.565979 630.949646,451.068176 630.926453,474.565033 
	C630.925964,475.051239 630.747070,475.537292 630.486145,476.863556 
	C622.223877,476.863556 613.803955,476.997711 605.402893,476.660217 
	C604.543945,476.625702 603.121338,473.770905 603.104919,472.212799 
	C602.934326,456.049622 603.252014,439.877930 602.866211,423.722137 
	C602.723083,417.726318 601.983337,411.429321 599.903625,405.873047 
	C597.153931,398.527008 590.057861,397.630920 583.111877,398.046326 
	C576.801514,398.423737 571.953308,401.684082 569.445129,407.384888 
	C567.954773,410.772034 567.156677,414.726562 567.107300,418.440094 
	C566.872498,436.101776 566.860901,453.770203 567.099121,471.431793 
	C567.159485,475.907532 565.731812,477.272186 561.385132,477.035553 
	C555.403442,476.709930 549.381653,476.749542 543.394653,477.021637 
	C539.174805,477.213379 537.959106,475.562469 537.978088,471.490570 
	C538.108826,443.494232 538.045593,415.496979 538.044800,387.000000 
z"/>
<path fill="#010001" opacity="1.000000" stroke="none" 
	d="
M964.477417,394.517914 
	C972.766113,382.389252 983.909424,374.782013 997.943848,372.578003 
	C1030.055298,367.535248 1055.555298,383.834167 1061.196167,413.645813 
	C1064.913696,433.292297 1061.225464,451.825806 1045.387451,466.052856 
	C1036.471558,474.061859 1026.084229,478.303894 1013.929260,479.168335 
	C996.873474,480.381256 982.092773,475.861755 970.224304,463.537842 
	C960.919739,453.876221 956.402832,442.071899 955.886658,428.498718 
	C955.424072,416.333710 957.776611,405.126740 964.477417,394.517914 
M1033.398804,420.636047 
	C1032.873901,403.868347 1013.875671,391.485138 997.076416,400.685211 
	C983.708069,408.006256 979.597839,430.079071 989.555603,443.585785 
	C996.703003,453.280487 1008.782288,456.271820 1019.474976,450.994934 
	C1030.429565,445.588806 1035.152466,435.619507 1033.398804,420.636047 
z"/>
<path fill="#010002" opacity="1.000000" stroke="none" 
	d="
M742.004028,454.993958 
	C742.307373,461.293213 742.548462,467.098053 742.942017,472.892487 
	C743.121521,475.535065 742.425659,477.010254 739.450073,476.966949 
	C733.119080,476.874847 726.771362,477.170227 720.464294,476.771881 
	C718.984375,476.678406 717.201660,474.696106 716.359497,473.147125 
	C715.582825,471.718506 715.882202,469.704895 715.815369,469.032593 
	C709.060974,472.184296 702.593201,476.845734 695.495667,478.195312 
	C676.770203,481.756012 660.649353,476.017639 653.364380,458.499084 
	C647.511719,444.424835 654.405029,427.040466 668.789612,421.591278 
	C677.501770,418.290894 687.020752,417.096893 696.202820,415.072937 
	C699.440430,414.359283 702.737610,413.784973 706.037537,413.518311 
	C710.080688,413.191620 713.544983,411.949829 713.815308,407.479828 
	C714.079956,403.104095 712.171753,399.152924 708.087463,397.150269 
	C697.727478,392.070496 681.740967,395.387512 679.461609,408.385162 
	C679.295898,409.330139 677.092773,410.750427 676.070984,410.576294 
	C669.872314,409.519836 663.738037,408.080933 657.589722,406.735718 
	C654.369873,406.031250 653.682312,404.360962 654.423828,400.983521 
	C657.911255,385.099152 672.987854,373.845764 687.816406,372.388062 
	C699.682007,371.221619 711.716431,370.819031 722.929932,376.855804 
	C733.036377,382.296631 739.994019,390.364319 740.763489,401.651947 
	C741.960632,419.212982 741.666260,436.875671 742.004028,454.993958 
M697.613037,457.407166 
	C709.679199,455.313507 715.316284,444.570435 713.114990,431.419403 
	C704.265137,433.136871 695.151123,434.032440 686.652649,436.810822 
	C678.816711,439.372589 677.810852,448.947296 683.807617,454.693146 
	C687.580811,458.308441 692.114380,458.349854 697.613037,457.407166 
z"/>
<path fill="#000001" opacity="1.000000" stroke="none" 
	d="
M861.002563,420.002441 
	C861.002563,437.166687 861.007568,453.831482 861.000000,470.496246 
	C860.997131,476.939270 860.984192,476.945831 854.327698,476.953888 
	C847.517700,476.962097 840.707703,476.955688 833.325378,476.955688 
	C833.201843,474.631470 833.013977,472.709320 833.011108,470.786896 
	C832.987183,454.788788 833.068481,438.790009 832.946838,422.792786 
	C832.916626,418.826416 832.561340,414.808990 831.834412,410.912262 
	C830.171570,401.999207 822.662598,397.166962 812.310364,398.009735 
	C804.244263,398.666382 797.089417,406.045044 797.023438,414.312592 
	C796.875854,432.809326 796.967468,451.307922 796.953674,469.805756 
	C796.948364,476.946014 796.938599,476.949097 789.846985,476.954803 
	C784.347595,476.959229 778.837036,476.739044 773.352600,477.025024 
	C769.246704,477.239166 767.889587,475.866028 767.916016,471.671997 
	C768.079895,445.675995 767.997803,419.678406 767.997375,393.681366 
	C767.997314,387.533936 767.997375,381.386505 767.997375,374.510040 
	C776.851746,374.510040 785.281372,374.437897 793.704834,374.632935 
	C794.462646,374.650482 795.608826,376.308136 795.820557,377.356415 
	C796.173767,379.104919 795.916931,380.976685 795.916931,383.269714 
	C799.993652,380.624634 803.490906,378.030670 807.273499,375.957123 
	C824.271545,366.638855 854.149292,372.110718 859.305054,399.248230 
	C860.562805,405.868378 860.472900,412.744537 861.002563,420.002441 
z"/>
<path fill="#010103" opacity="1.000000" stroke="none" 
	d="
M896.064087,459.687500 
	C895.274414,454.909790 894.162415,450.505676 894.081116,446.082581 
	C893.836243,432.761169 893.992493,419.432373 893.992371,406.106476 
	C893.992310,404.312164 893.992310,402.517853 893.992310,400.180756 
	C887.858398,400.180756 882.274292,400.180756 876.176147,400.180756 
	C876.176147,391.394287 876.176147,383.159668 876.176147,374.623199 
	C878.711243,374.443085 881.173340,374.312378 883.626465,374.085663 
	C891.260803,373.380157 895.648010,368.862671 895.972656,361.159760 
	C896.154907,356.835938 896.106323,352.498199 896.027100,348.169159 
	C895.977600,345.468292 896.956299,344.233856 899.823303,344.296265 
	C905.983582,344.430420 912.151062,344.439758 918.310974,344.297913 
	C921.544861,344.223450 922.761658,345.510498 922.703186,348.716858 
	C922.575745,355.710449 922.795410,362.710968 922.634460,369.703156 
	C922.554932,373.159485 923.856812,374.519714 927.306091,374.358795 
	C931.128357,374.180511 934.967346,374.395935 938.797180,374.330414 
	C941.751343,374.279846 943.014771,375.609497 942.971619,378.558136 
	C942.888672,384.220367 942.865417,389.886475 942.984192,395.547485 
	C943.050171,398.689484 941.890747,400.154175 938.610962,400.033997 
	C934.618835,399.887726 930.613770,400.108490 926.620178,399.983276 
	C923.925781,399.898804 922.651489,400.822906 922.668213,403.673370 
	C922.747375,417.164978 922.603638,430.659027 922.804565,444.148254 
	C922.883362,449.439209 925.235657,451.544281 930.510193,452.044525 
	C932.162292,452.201172 933.836426,452.204102 935.498108,452.168121 
	C942.956421,452.006805 942.957947,451.992584 942.960388,459.654541 
	C942.961670,463.652313 943.274109,467.688141 942.803284,471.630035 
	C942.600586,473.327179 941.046814,475.880768 939.631592,476.256927 
	C926.301392,479.800323 913.479248,479.098328 902.665894,469.414856 
	C899.921265,466.957031 898.332764,463.208099 896.064087,459.687500 
z"/>
<path fill="#551FF3" opacity="1.000000" stroke="none" 
	d="
M272.976990,505.956573 
	C265.406555,511.133270 257.866608,516.355225 250.258972,521.476685 
	C236.840240,530.510193 221.648148,535.045227 205.990921,537.757568 
	C176.792465,542.815918 148.524216,538.843811 122.075211,525.634216 
	C111.461502,520.333313 102.150269,512.424561 92.457901,505.198822 
	C106.954681,504.288269 121.237778,503.675262 135.525482,503.536438 
	C148.296860,503.412292 161.073898,503.979126 173.847412,503.936279 
	C189.283264,503.884430 204.718079,503.326111 220.153259,503.329895 
	C235.623978,503.333710 251.096420,503.688293 266.563141,504.083374 
	C268.715637,504.138306 270.839752,505.304688 272.976990,505.956573 
z"/>
<path fill="#5523ED" opacity="1.000000" stroke="none" 
	d="
M273.282959,505.823883 
	C270.839752,505.304688 268.715637,504.138306 266.563141,504.083374 
	C251.096420,503.688293 235.623978,503.333710 220.153259,503.329895 
	C204.718079,503.326111 189.283264,503.884430 173.847412,503.936279 
	C161.073898,503.979126 148.296860,503.412292 135.525482,503.536438 
	C121.237778,503.675262 106.954681,504.288269 92.304047,504.898499 
	C88.058372,501.596039 84.178230,498.090027 80.102592,493.967896 
	C79.264923,492.651855 78.622734,491.951935 77.980545,491.252045 
	C77.804626,491.171173 77.628716,491.090302 77.095154,490.747864 
	C76.593513,490.326080 76.435349,490.181366 76.263000,490.052155 
	C74.895935,488.236053 73.528870,486.419983 72.101486,483.927185 
	C72.879967,479.640991 75.796288,480.027313 78.417747,480.018524 
	C92.997383,479.969574 107.577164,479.965515 122.481529,480.050781 
	C136.386627,488.531281 150.738693,494.625214 167.109528,495.175812 
	C167.226944,495.255585 167.647217,495.280701 167.647217,495.280701 
	C167.647217,495.280701 168.023956,495.099792 168.348389,495.064758 
	C169.106659,495.053223 169.540497,495.076721 170.246002,495.371582 
	C174.452164,497.886475 178.315521,498.163361 182.446655,495.138458 
	C183.879303,495.067657 184.927887,495.083679 186.094910,495.178589 
	C186.213318,495.257446 186.633148,495.279694 186.633148,495.279694 
	C186.633148,495.279694 187.007751,495.096008 187.429962,495.052856 
	C193.222900,494.099701 198.830612,493.882751 203.917786,492.143372 
	C216.688156,487.777008 229.223145,482.722137 242.257050,477.993683 
	C248.541031,478.696014 254.407883,479.712860 260.302795,479.916077 
	C269.559601,480.235077 278.835480,480.039856 288.102875,479.986816 
	C290.789001,479.971436 292.764862,480.483978 292.316040,483.805786 
	C291.744843,485.146210 291.173645,486.486633 290.143616,487.996521 
	C289.487640,488.447205 289.290466,488.728394 289.093262,489.009613 
	C283.925171,494.570129 278.757019,500.130676 273.282959,505.823883 
z"/>
<path fill="#543EC6" opacity="1.000000" stroke="none" 
	d="
M215.040924,325.968353 
	C218.900528,325.806824 222.763046,325.692902 226.618118,325.457306 
	C227.921707,325.377594 229.633820,325.430023 230.422943,324.663788 
	C233.249634,321.919006 236.355423,323.032745 239.641846,322.876251 
	C243.737183,322.681183 248.365311,324.893890 252.193466,320.403015 
	C255.030228,317.075104 259.112854,318.304749 261.565521,322.414307 
	C262.988159,324.798096 264.282196,325.442291 267.200958,324.525482 
	C270.458557,323.502228 274.097321,324.754578 277.528839,322.738800 
	C280.154846,321.196259 283.525635,320.827728 286.621765,320.230499 
	C287.697021,320.023102 289.027802,320.511322 290.092621,321.004242 
	C292.654022,322.189789 295.127136,323.566101 297.792603,324.692871 
	C301.961792,331.686981 306.148712,338.763702 309.910583,346.059631 
	C311.700317,349.530609 312.680542,353.419006 313.746399,357.706390 
	C311.156342,360.219696 308.847382,362.144958 306.314697,364.256714 
	C306.063995,364.030548 305.658600,363.528381 305.138123,363.221039 
	C303.602081,362.313995 302.020538,361.484070 300.456787,360.623962 
	C300.108093,362.282166 299.524597,363.932159 299.466125,365.600555 
	C299.379822,368.064026 300.345520,370.786835 299.568085,372.929260 
	C299.003876,374.484222 295.884735,376.548981 294.718842,376.128632 
	C292.722748,375.408997 289.635010,372.214752 290.013306,371.289825 
	C292.814331,364.441833 286.428497,362.616760 284.058258,357.370819 
	C279.461090,364.778809 273.928528,364.906342 267.785797,361.920563 
	C267.636871,361.848206 267.403564,361.696014 267.335449,361.747528 
	C265.266571,363.311523 262.495209,364.507233 261.366089,366.590881 
	C260.301270,368.555908 260.442352,371.650635 264.531342,371.634369 
	C265.276642,371.631409 266.029572,373.554901 266.778992,374.589111 
	C265.787170,375.190613 264.638306,376.467499 263.830017,376.279541 
	C259.803497,375.343262 257.098450,377.070038 254.565918,379.760559 
	C253.160751,375.686127 251.995224,371.881226 251.218613,368.048401 
	C252.250137,367.923889 253.099289,368.051971 253.495728,367.687561 
	C254.588638,366.683014 255.591904,365.532227 256.349030,364.270355 
	C256.448029,364.105347 254.528351,362.213135 254.179520,362.388184 
	C252.934021,363.013123 251.902145,364.127533 250.916351,365.176025 
	C250.502182,365.616516 250.404877,366.354950 249.927094,366.694763 
	C247.759033,362.782654 245.959305,359.056427 243.871887,355.498962 
	C236.706161,343.286896 226.372452,334.132385 215.040924,325.968353 
z"/>
<path fill="#5537D1" opacity="1.000000" stroke="none" 
	d="
M254.805542,380.030090 
	C257.098450,377.070038 259.803497,375.343262 263.830017,376.279541 
	C264.638306,376.467499 265.787170,375.190613 266.778992,374.589111 
	C266.029572,373.554901 265.276642,371.631409 264.531342,371.634369 
	C260.442352,371.650635 260.301270,368.555908 261.366089,366.590881 
	C262.495209,364.507233 265.266571,363.311523 267.335449,361.747528 
	C267.403564,361.696014 267.636871,361.848206 267.785797,361.920563 
	C273.928528,364.906342 279.461090,364.778809 284.058258,357.370819 
	C286.428497,362.616760 292.814331,364.441833 290.013306,371.289825 
	C289.635010,372.214752 292.722748,375.408997 294.718842,376.128632 
	C295.884735,376.548981 299.003876,374.484222 299.568085,372.929260 
	C300.345520,370.786835 299.379822,368.064026 299.466125,365.600555 
	C299.524597,363.932159 300.108093,362.282166 300.456787,360.623962 
	C302.020538,361.484070 303.602081,362.313995 305.138123,363.221039 
	C305.658600,363.528381 306.063995,364.030548 306.314697,364.256714 
	C308.847382,362.144958 311.156342,360.219696 313.760925,358.096832 
	C316.031647,365.352539 318.738586,372.704712 319.787109,380.286194 
	C320.961121,388.775208 320.633179,397.471985 320.563812,406.432251 
	C318.457550,406.269745 316.761719,405.378021 315.032135,405.306915 
	C309.742584,405.089355 304.427307,404.962128 299.148285,405.262085 
	C296.687042,405.401978 294.286316,406.607361 291.557129,407.135284 
	C287.643341,402.984589 282.965668,402.587860 277.991364,402.709290 
	C271.104279,402.877441 264.210022,402.751495 257.867554,402.751495 
	C256.751190,394.467682 255.778366,387.248871 254.805542,380.030090 
z"/>
<path fill="#553DC8" opacity="1.000000" stroke="none" 
	d="
M73.669174,314.998657 
	C74.343025,317.080048 74.090225,320.869507 75.277199,321.392731 
	C78.706627,322.904480 82.648796,325.086273 86.558479,322.085541 
	C91.011414,318.667847 95.516098,320.848175 100.114738,321.739838 
	C103.052063,322.309418 106.688599,323.169220 109.056213,321.986450 
	C114.317558,319.357971 118.837097,319.737335 123.596779,323.126343 
	C106.498909,333.202972 93.298523,346.549438 84.965981,364.903931 
	C83.103783,369.086670 81.482033,373.039764 79.425537,376.994965 
	C73.393661,375.709839 67.910072,381.650116 62.241795,377.276276 
	C62.077106,377.149231 61.541634,377.309692 61.305790,377.496277 
	C56.497784,381.299957 50.868099,379.955109 45.469860,380.053009 
	C48.849129,355.885468 58.470467,334.406799 73.669174,314.998657 
z"/>
<path fill="#542AE4" opacity="1.000000" stroke="none" 
	d="
M313.153778,447.073303 
	C308.329407,456.963989 303.505005,466.854645 298.094482,476.743652 
	C292.910858,476.882599 288.307312,477.243805 283.717285,477.116760 
	C274.853302,476.871368 265.984009,476.518188 257.145935,475.834320 
	C254.714111,475.646118 252.385117,474.129028 250.170837,472.931915 
	C251.324249,471.812897 252.315720,470.983643 253.632431,470.065063 
	C265.269745,462.769196 274.503479,453.338196 283.285522,442.974670 
	C290.360931,442.982422 297.020020,443.170624 303.662659,442.920990 
	C307.651703,442.771057 310.771179,443.899078 313.153778,447.073303 
z"/>
<path fill="#542AE4" opacity="1.000000" stroke="none" 
	d="
M51.962952,447.013580 
	C51.686028,446.535309 51.409103,446.057037 51.460884,445.152405 
	C53.321434,444.250916 54.835087,443.439575 56.388088,443.355499 
	C66.253250,442.821686 76.127090,442.448364 86.075348,442.177094 
	C86.152611,442.332001 86.103203,442.675171 86.202873,442.981323 
	C86.913170,443.845123 87.523796,444.402771 88.372894,445.194061 
	C94.109962,452.276245 99.608551,459.124817 105.240311,466.271240 
	C107.191124,468.394928 109.008774,470.220703 110.513504,472.192749 
	C105.603241,476.023560 100.217934,476.129333 94.666107,476.046570 
	C85.218231,475.905640 75.765785,476.071503 66.315262,476.108459 
	C61.858707,467.338440 57.402157,458.568390 53.007771,449.229828 
	C52.700939,448.112061 52.331947,447.562805 51.962952,447.013580 
z"/>
<path fill="#5530DB" opacity="1.000000" stroke="none" 
	d="
M85.998077,442.022186 
	C76.127090,442.448364 66.253250,442.821686 56.388088,443.355499 
	C54.835087,443.439575 53.321434,444.250916 51.484077,444.856812 
	C49.073074,434.968414 46.967590,424.949219 45.039406,414.187714 
	C45.038898,406.721069 48.845135,405.480743 54.707855,405.846924 
	C61.938396,406.298523 69.216927,405.981842 76.579514,406.386230 
	C77.455315,411.517303 78.226318,416.259308 78.935234,421.315002 
	C79.250725,422.596405 79.628311,423.564087 79.943619,424.740845 
	C79.881340,424.949890 80.033119,425.358887 80.062958,425.689575 
	C82.061226,431.354248 84.029655,436.688202 85.998077,442.022186 
z"/>
<path fill="#5530DB" opacity="1.000000" stroke="none" 
	d="
M313.418945,446.826935 
	C310.771179,443.899078 307.651703,442.771057 303.662659,442.920990 
	C297.020020,443.170624 290.360931,442.982422 283.370667,442.634094 
	C286.312103,435.523682 289.591583,428.757812 293.082397,421.631927 
	C294.983673,416.401245 294.907928,411.712402 291.858154,407.329773 
	C294.286316,406.607361 296.687042,405.401978 299.148285,405.262085 
	C304.427307,404.962128 309.742584,405.089355 315.032135,405.306915 
	C316.761719,405.378021 318.457550,406.269745 320.502686,406.897919 
	C320.849121,420.633179 317.997772,433.739014 313.418945,446.826935 
z"/>
<path fill="#5536D3" opacity="1.000000" stroke="none" 
	d="
M76.474716,405.997162 
	C69.216927,405.981842 61.938396,406.298523 54.707855,405.846924 
	C48.845135,405.480743 45.038898,406.721069 45.003475,413.739502 
	C44.628998,405.450775 44.395885,396.868317 44.351841,388.284851 
	C44.339199,385.821228 44.872730,383.354767 45.312847,380.471313 
	C50.868099,379.955109 56.497784,381.299957 61.305790,377.496277 
	C61.541634,377.309692 62.077106,377.149231 62.241795,377.276276 
	C67.910072,381.650116 73.393661,375.709839 79.438248,377.332031 
	C78.748703,387.110352 77.611710,396.553772 76.474716,405.997162 
z"/>
<path fill="#5625EC" opacity="1.000000" stroke="none" 
	d="
M66.412117,476.461365 
	C75.765785,476.071503 85.218231,475.905640 94.666107,476.046570 
	C100.217934,476.129333 105.603241,476.023560 110.829056,472.332581 
	C115.023987,474.866180 118.590439,477.406158 122.156891,479.946136 
	C107.577164,479.965515 92.997383,479.969574 78.417747,480.018524 
	C75.796288,480.027313 72.879967,479.640991 71.951469,483.624207 
	C70.077515,481.603363 68.293251,479.208832 66.412117,476.461365 
z"/>
<path fill="#5625EC" opacity="1.000000" stroke="none" 
	d="
M250.008942,473.221710 
	C252.385117,474.129028 254.714111,475.646118 257.145935,475.834320 
	C265.984009,476.518188 274.853302,476.871368 283.717285,477.116760 
	C288.307312,477.243805 292.910858,476.882599 297.804871,476.926636 
	C296.386871,479.243103 294.672302,481.374908 292.636871,483.656250 
	C292.764862,480.483978 290.789001,479.971436 288.102875,479.986816 
	C278.835480,480.039856 269.559601,480.235077 260.302795,479.916077 
	C254.407883,479.712860 248.541031,478.696014 242.504272,477.760590 
	C244.900955,476.058685 247.454941,474.640198 250.008942,473.221710 
z"/>
<path fill="#5625EC" opacity="1.000000" stroke="none" 
	d="
M78.007462,491.544495 
	C78.622734,491.951935 79.264923,492.651855 79.957031,493.664734 
	C79.349434,493.264130 78.691910,492.550568 78.007462,491.544495 
z"/>
<path fill="#5530DB" opacity="1.000000" stroke="none" 
	d="
M51.998962,447.303284 
	C52.331947,447.562805 52.700939,448.112061 52.945091,448.853943 
	C52.558487,448.562073 52.296726,448.077515 51.998962,447.303284 
z"/>
<path fill="#5625EC" opacity="1.000000" stroke="none" 
	d="
M289.305664,488.944489 
	C289.290466,488.728394 289.487640,488.447205 289.837585,488.162018 
	C289.945557,488.472260 289.788147,488.712708 289.305664,488.944489 
z"/>
<path fill="#5625EC" opacity="1.000000" stroke="none" 
	d="
M76.264572,490.250305 
	C76.435349,490.181366 76.593513,490.326080 76.838928,490.611176 
	C76.636780,490.825012 76.412041,490.729126 76.264572,490.250305 
z"/>
<path fill="#F9F8FE" opacity="1.000000" stroke="none" 
	d="
M85.206429,364.674225 
	C93.298523,346.549438 106.498909,333.202972 123.879013,323.293793 
	C141.288757,314.469757 159.380966,311.077179 178.520905,313.310852 
	C191.414734,314.815582 203.150543,319.516846 214.708252,325.862946 
	C226.372452,334.132385 236.706161,343.286896 243.871887,355.498962 
	C245.959305,359.056427 247.759033,362.782654 249.910095,366.949371 
	C250.112198,367.636383 250.094864,367.805542 249.740356,368.054718 
	C247.320892,369.163361 245.334396,370.609467 243.132004,371.114960 
	C240.380035,371.746552 237.431931,371.463837 234.602859,371.836578 
	C231.899979,372.192657 229.046036,373.744476 226.615753,373.193817 
	C223.983902,372.597504 221.765213,370.177643 219.366333,368.553101 
	C218.290970,370.003387 216.273987,372.837616 211.784622,370.008545 
	C209.182999,368.369049 205.759018,367.932159 202.635147,367.299500 
	C201.902359,367.151093 200.886536,368.400269 199.809601,368.728760 
	C196.644241,367.613708 193.698029,366.203583 190.690430,366.057648 
	C184.339142,365.749390 177.929398,365.779724 171.594742,366.297028 
	C167.350296,366.643616 163.193695,368.065979 158.747772,369.006439 
	C158.331100,369.005127 158.164444,369.004395 157.902863,368.698792 
	C157.656219,368.101013 157.580765,367.659790 157.341614,367.536865 
	C151.009048,364.280731 144.380707,367.788422 137.913101,366.842682 
	C137.436981,366.773071 136.639236,368.902985 135.743759,370.009735 
	C135.496506,370.009186 135.002014,370.006897 134.849792,369.819580 
	C131.914764,369.927765 129.049942,370.629883 127.382332,367.245667 
	C127.150589,366.775360 125.476082,366.382507 125.207954,366.662079 
	C122.659882,369.318787 120.891945,366.787048 118.713364,366.053528 
	C117.140045,365.523773 115.213943,365.861389 113.474098,366.062378 
	C112.022789,366.230042 110.601471,367.119110 109.187599,367.071625 
	C101.781601,366.822968 94.382217,366.377655 86.697693,365.762695 
	C86.012047,365.241211 85.609238,364.957733 85.206429,364.674225 
z"/>
<path fill="#543EC6" opacity="1.000000" stroke="none" 
	d="
M220.570129,320.397705 
	C220.391907,320.190430 220.325943,319.938721 220.259995,319.687042 
	C220.400787,319.909119 220.541595,320.131195 220.570129,320.397705 
z"/>
<path fill="#47704C" opacity="1.000000" stroke="none" 
	d="
M458.034760,356.004028 
	C465.915527,356.386078 473.468140,354.810516 480.547882,358.538452 
	C488.542816,362.748199 492.613861,370.988800 490.853760,380.243317 
	C489.195160,388.964111 482.194366,395.491760 473.351868,395.915283 
	C466.049133,396.265045 458.715088,395.906219 451.399750,396.072693 
	C448.027588,396.149414 447.644379,394.290436 447.656342,391.654388 
	C447.702362,381.507751 447.843872,371.356354 447.585724,361.216003 
	C447.478119,356.987396 448.998993,355.471008 453.055267,355.975922 
	C454.529419,356.159454 456.045746,356.004547 458.034760,356.004028 
z"/>
<path fill="#47704C" opacity="1.000000" stroke="none" 
	d="
M1033.447510,421.017212 
	C1035.152466,435.619507 1030.429565,445.588806 1019.474976,450.994934 
	C1008.782288,456.271820 996.703003,453.280487 989.555603,443.585785 
	C979.597839,430.079071 983.708069,408.006256 997.076416,400.685211 
	C1013.875671,391.485138 1032.873901,403.868347 1033.447510,421.017212 
z"/>
<path fill="#47704C" opacity="1.000000" stroke="none" 
	d="
M697.224915,457.570679 
	C692.114380,458.349854 687.580811,458.308441 683.807617,454.693146 
	C677.810852,448.947296 678.816711,439.372589 686.652649,436.810822 
	C695.151123,434.032440 704.265137,433.136871 713.114990,431.419403 
	C715.316284,444.570435 709.679199,455.313507 697.224915,457.570679 
z"/>
<path fill="#E1D9FC" opacity="1.000000" stroke="none" 
	d="
M250.170853,472.931915 
	C247.454941,474.640198 244.900955,476.058685 242.099731,477.710266 
	C229.223145,482.722137 216.688156,487.777008 203.917786,492.143372 
	C198.830612,493.882751 193.222900,494.099701 187.171997,494.997284 
	C186.320068,495.023132 186.148285,495.061401 185.976486,495.099701 
	C184.927887,495.083679 183.879303,495.067657 181.980896,495.112000 
	C177.412170,495.148346 173.693253,495.124298 169.974335,495.100220 
	C169.540497,495.076721 169.106659,495.053223 168.090607,495.007324 
	C167.336304,495.021942 167.164215,495.058990 166.992111,495.096039 
	C150.738693,494.625214 136.386627,488.531281 122.481522,480.050781 
	C118.590439,477.406158 115.023987,474.866180 111.141983,472.186340 
	C109.008774,470.220703 107.191124,468.394928 105.654678,466.272034 
	C109.666801,467.113159 113.330246,468.759186 117.145081,469.266266 
	C122.380890,469.962250 127.731049,469.958435 133.032913,469.971649 
	C173.124237,470.071503 213.215744,470.102112 253.307190,470.154388 
	C252.315720,470.983643 251.324249,471.812897 250.170853,472.931915 
z"/>
<path fill="#7250E5" opacity="1.000000" stroke="none" 
	d="
M170.246002,495.371582 
	C173.693253,495.124298 177.412170,495.148346 181.596848,495.198853 
	C178.315521,498.163361 174.452164,497.886475 170.246002,495.371582 
z"/>
<path fill="#7250E5" opacity="1.000000" stroke="none" 
	d="
M186.094910,495.178589 
	C186.148285,495.061401 186.320068,495.023132 186.749802,495.040436 
	C187.007751,495.096008 186.633148,495.279694 186.633148,495.279694 
	C186.633148,495.279694 186.213318,495.257446 186.094910,495.178589 
z"/>
<path fill="#7250E5" opacity="1.000000" stroke="none" 
	d="
M167.109528,495.175812 
	C167.164215,495.058990 167.336304,495.021942 167.766174,495.042358 
	C168.023956,495.099792 167.647217,495.280701 167.647217,495.280701 
	C167.647217,495.280701 167.226944,495.255585 167.109528,495.175812 
z"/>
<path fill="#F1EDFC" opacity="1.000000" stroke="none" 
	d="
M135.002014,370.006897 
	C135.002014,370.006897 135.496506,370.009186 135.748322,370.004883 
	C136.000153,370.000549 135.994690,370.001556 136.149200,370.177399 
	C136.518158,370.580383 136.746307,370.792786 137.125000,371.215759 
	C137.681610,372.633209 138.101425,373.825378 138.639236,375.352631 
	C142.269470,374.109619 145.535629,372.991272 149.409744,371.664734 
	C149.377060,371.623718 150.004303,372.411224 150.227142,372.691010 
	C153.095001,371.330139 155.546387,370.166901 157.997772,369.003662 
	C158.164444,369.004395 158.331100,369.005127 158.843414,369.718384 
	C159.328430,371.378662 159.467819,372.326416 159.473160,373.229248 
	C159.339127,373.184296 159.403915,372.909088 159.420471,372.783905 
	C159.437027,372.658722 159.361603,372.574799 159.361603,372.574799 
	C159.361603,372.574799 159.400253,372.946716 159.198242,373.215149 
	C153.163940,374.665039 149.995377,378.533875 148.241409,384.097046 
	C148.189102,384.808380 148.293686,385.410828 148.504074,386.377594 
	C148.539307,387.489838 148.468735,388.237762 148.286255,389.044403 
	C148.095901,389.210754 147.927338,389.366638 147.954666,389.417664 
	C148.070862,389.634644 148.245071,389.820557 148.506378,390.472137 
	C148.542511,395.946625 148.470337,400.966736 148.289520,406.057678 
	C148.330582,406.422699 148.480286,406.716980 148.784729,407.345276 
	C150.520172,411.983185 152.903351,415.964874 157.600357,416.850952 
	C165.857971,418.408661 172.549362,412.552551 172.736679,404.127960 
	C172.850632,399.002930 172.533264,393.860474 172.824615,388.749512 
	C173.104736,383.835510 171.824844,379.642059 168.795166,375.760315 
	C171.404861,374.007751 173.783493,372.505219 177.077286,370.424622 
	C177.567474,371.234009 178.323822,372.482849 179.093689,373.754059 
	C181.550278,372.766479 183.779160,371.870453 185.994568,370.979858 
	C186.681229,372.267487 187.347031,373.515991 188.173065,375.064972 
	C192.300766,372.950684 196.150848,370.978577 200.000931,369.006470 
	C200.886536,368.400269 201.902359,367.151093 202.635147,367.299500 
	C205.759018,367.932159 209.182999,368.369049 211.784622,370.008545 
	C216.273987,372.837616 218.290970,370.003387 219.366333,368.553101 
	C221.765213,370.177643 223.983902,372.597504 226.615753,373.193817 
	C229.046036,373.744476 231.899979,372.192657 234.602859,371.836578 
	C237.431931,371.463837 240.380035,371.746552 243.132004,371.114960 
	C245.334396,370.609467 247.320892,369.163361 249.929031,368.075562 
	C250.454849,368.016388 250.829697,368.076294 250.829681,368.076294 
	C251.995224,371.881226 253.160751,375.686127 254.565918,379.760559 
	C255.778366,387.248871 256.751190,394.467682 257.867554,402.751495 
	C264.210022,402.751495 271.104279,402.877441 277.991364,402.709290 
	C282.965668,402.587860 287.643341,402.984589 291.557129,407.135254 
	C294.907928,411.712402 294.983673,416.401245 292.821960,421.722656 
	C291.246826,422.360779 290.132721,422.758606 289.041840,422.702789 
	C278.851288,422.181366 268.670197,421.357178 258.474487,421.107666 
	C253.908188,420.995911 249.314575,422.415710 244.733749,422.413177 
	C219.443893,422.399261 194.153732,422.200806 168.865082,421.934662 
	C166.466232,421.909393 164.097092,420.795044 161.676453,420.527679 
	C159.914246,420.332977 158.090149,420.704712 156.293167,420.816345 
	C155.195724,420.884552 154.097412,420.938477 152.752502,420.881897 
	C146.092056,420.119141 139.683899,419.400360 133.257507,418.931854 
	C132.558929,418.880920 131.755035,420.274994 130.624863,420.999268 
	C129.499405,420.999420 128.749100,420.999084 127.684509,420.837524 
	C125.681618,419.321503 123.993011,417.966736 122.586502,416.396423 
	C128.471603,413.544800 130.765686,408.938232 130.756836,402.952972 
	C130.750458,398.637573 131.201843,394.262634 130.635132,390.023071 
	C130.038757,385.561798 128.474136,381.229980 127.722328,376.768829 
	C132.266281,376.379700 133.790115,373.353943 135.002014,370.006897 
M203.496857,371.472412 
	C203.496857,371.472412 203.509918,371.511993 203.496857,371.472412 
M259.503601,418.526154 
	C259.503601,418.526154 259.490936,418.487823 259.503601,418.526154 
M267.496338,418.476074 
	C267.496338,418.476074 267.508850,418.514435 267.496338,418.476074 
M271.475281,418.504944 
	C271.475281,418.504944 271.513458,418.491974 271.475281,418.504944 
M275.503601,418.526154 
	C275.503601,418.526154 275.490936,418.487823 275.503601,418.526154 
z"/>
<path fill="#5537D1" opacity="1.000000" stroke="none" 
	d="
M251.218628,368.048401 
	C250.829697,368.076294 250.454849,368.016388 250.266174,367.995544 
	C250.094864,367.805542 250.112198,367.636383 250.146545,367.212585 
	C250.404877,366.354950 250.502182,365.616516 250.916351,365.176025 
	C251.902145,364.127533 252.934021,363.013123 254.179520,362.388184 
	C254.528351,362.213135 256.448029,364.105347 256.349030,364.270355 
	C255.591904,365.532227 254.588638,366.683014 253.495728,367.687561 
	C253.099289,368.051971 252.250137,367.923889 251.218628,368.048401 
z"/>
<path fill="#EEEAFB" opacity="1.000000" stroke="none" 
	d="
M122.304398,416.611938 
	C123.993011,417.966736 125.681618,419.321503 127.684174,421.247925 
	C127.283752,423.688904 126.368050,427.216614 125.887756,427.158325 
	C122.781876,426.781219 119.770958,425.621979 116.164833,424.551758 
	C113.694794,427.689880 108.501724,429.051544 107.584267,425.846527 
	C106.268425,421.249817 103.544052,421.255432 99.980850,421.970093 
	C99.962364,421.938934 100.000893,421.999481 99.983978,422.343201 
	C99.684097,424.866364 99.135010,426.398499 96.646011,424.372864 
	C95.405449,423.363251 92.972801,421.625427 92.819382,421.794708 
	C89.254585,425.726227 83.968369,423.180817 80.033119,425.358887 
	C80.033119,425.358887 79.881340,424.949890 80.077827,424.409607 
	C79.848656,422.913330 79.422989,421.957306 78.997322,421.001312 
	C78.226318,416.259308 77.455315,411.517303 76.579514,406.386230 
	C77.611710,396.553772 78.748703,387.110352 79.872986,377.329895 
	C81.482033,373.039764 83.103783,369.086670 84.965981,364.903931 
	C85.609238,364.957733 86.012047,365.241211 86.441559,365.975037 
	C83.323830,370.316223 84.876282,372.943329 88.830894,375.255066 
	C89.921707,374.075562 90.888786,373.029816 91.062706,372.841766 
	C93.842903,374.198029 96.223686,375.359436 97.666183,376.063141 
	C100.551743,373.759277 102.418053,371.015900 104.488861,370.851715 
	C110.611443,370.366211 116.814835,370.899872 122.989609,371.399658 
	C122.998245,372.495911 123.003891,373.227448 122.630920,373.923218 
	C111.579575,372.791504 106.756752,377.141083 106.706490,387.933868 
	C106.684761,392.598145 106.698494,397.262604 106.703331,401.927002 
	C106.714813,413.002991 111.515373,417.519745 122.304398,416.611938 
M106.916985,373.882416 
	C106.728333,373.717743 106.539688,373.553070 106.351036,373.388397 
	C106.259918,373.498383 106.168800,373.608368 106.077675,373.718353 
	C106.300522,373.839783 106.523369,373.961182 106.916985,373.882416 
z"/>
<path fill="#E9E3FB" opacity="1.000000" stroke="none" 
	d="
M99.999344,422.001221 
	C103.544052,421.255432 106.268425,421.249817 107.584267,425.846527 
	C108.501724,429.051544 113.694794,427.689880 116.164833,424.551758 
	C119.770958,425.621979 122.781876,426.781219 125.887756,427.158325 
	C126.368050,427.216614 127.283752,423.688904 127.998444,421.409149 
	C128.749100,420.999084 129.499405,420.999420 130.808075,421.277344 
	C133.508759,422.838989 133.656723,428.543488 137.673584,425.267792 
	C141.035446,422.526337 144.440125,422.565338 148.211777,422.467926 
	C149.819244,422.426453 151.404266,421.514923 152.999481,420.998779 
	C154.097412,420.938477 155.195724,420.884552 156.293167,420.816345 
	C158.090149,420.704712 159.914246,420.332977 161.676453,420.527679 
	C164.097092,420.795044 166.466232,421.909393 168.865082,421.934662 
	C194.153732,422.200806 219.443893,422.399261 244.733749,422.413177 
	C249.314575,422.415710 253.908188,420.995911 258.474487,421.107666 
	C268.670197,421.357178 278.851288,422.181366 289.041840,422.702789 
	C290.132721,422.758606 291.246826,422.360779 292.610596,422.082703 
	C289.591583,428.757812 286.312103,435.523682 282.947449,442.630127 
	C274.503479,453.338196 265.269745,462.769196 253.632431,470.065063 
	C213.215744,470.102112 173.124237,470.071503 133.032913,469.971649 
	C127.731049,469.958435 122.380890,469.962250 117.145081,469.266266 
	C113.330246,468.759186 109.666801,467.113159 105.521507,465.974121 
	C99.608551,459.124817 94.109962,452.276245 88.334007,444.865540 
	C87.405502,443.760620 86.754356,443.217896 86.103203,442.675171 
	C86.103203,442.675171 86.152611,442.332001 86.075348,442.177094 
	C84.029655,436.688202 82.061226,431.354248 80.062958,425.689575 
	C83.968369,423.180817 89.254585,425.726227 92.819382,421.794708 
	C92.972801,421.625427 95.405449,423.363251 96.646011,424.372864 
	C99.135010,426.398499 99.684097,424.866364 99.983536,422.343445 
	C100.000000,422.000000 99.999344,422.001221 99.999344,422.001221 
M266.443329,423.042511 
	C266.443329,423.042511 266.447113,422.981628 266.443329,423.042511 
M82.503983,426.523560 
	C82.503983,426.523560 82.491920,426.486237 82.503983,426.523560 
M156.524963,423.495148 
	C156.524963,423.495148 156.486359,423.508392 156.524963,423.495148 
z"/>
<path fill="#5530DB" opacity="1.000000" stroke="none" 
	d="
M86.202873,442.981323 
	C86.754356,443.217896 87.405502,443.760620 88.095535,444.631897 
	C87.523796,444.402771 86.913170,443.845123 86.202873,442.981323 
z"/>
<path fill="#E9E3FB" opacity="1.000000" stroke="none" 
	d="
M78.935234,421.315002 
	C79.422989,421.957306 79.848656,422.913330 80.140106,424.200562 
	C79.628311,423.564087 79.250725,422.596405 78.935234,421.315002 
z"/>
<path fill="#F6F4FD" opacity="1.000000" stroke="none" 
	d="
M122.986618,371.034851 
	C116.814835,370.899872 110.611443,370.366211 104.488861,370.851715 
	C102.418053,371.015900 100.551743,373.759277 97.666183,376.063141 
	C96.223686,375.359436 93.842903,374.198029 91.062706,372.841766 
	C90.888786,373.029816 89.921707,374.075562 88.830894,375.255066 
	C84.876282,372.943329 83.323830,370.316223 86.724396,366.213043 
	C94.382217,366.377655 101.781601,366.822968 109.187599,367.071625 
	C110.601471,367.119110 112.022789,366.230042 113.474098,366.062378 
	C115.213943,365.861389 117.140045,365.523773 118.713364,366.053528 
	C120.891945,366.787048 122.659882,369.318787 125.207954,366.662079 
	C125.476082,366.382507 127.150589,366.775360 127.382332,367.245667 
	C129.049942,370.629883 131.914764,369.927765 134.849792,369.819580 
	C133.790115,373.353943 132.266281,376.379700 127.604797,376.754669 
	C126.877960,376.658691 126.793640,376.456604 126.856277,375.771179 
	C125.574181,373.901886 124.280403,372.468353 122.986618,371.034851 
z"/>
<path fill="#F6F4FD" opacity="1.000000" stroke="none" 
	d="
M199.809601,368.728760 
	C196.150848,370.978577 192.300766,372.950684 188.173065,375.064972 
	C187.347031,373.515991 186.681229,372.267487 185.994568,370.979858 
	C183.779160,371.870453 181.550278,372.766479 179.093689,373.754059 
	C178.323822,372.482849 177.567474,371.234009 177.077286,370.424622 
	C173.783493,372.505219 171.404861,374.007751 168.577652,375.713806 
	C168.129074,375.917328 167.814362,375.602905 167.785080,375.220245 
	C165.651917,369.576019 164.141235,369.258514 159.791351,373.217224 
	C159.796692,373.271851 159.607208,373.274170 159.607208,373.274170 
	C159.467819,372.326416 159.328430,371.378662 159.093414,369.718933 
	C163.193695,368.065979 167.350296,366.643616 171.594742,366.297028 
	C177.929398,365.779724 184.339142,365.749390 190.690430,366.057648 
	C193.698029,366.203583 196.644241,367.613708 199.809601,368.728760 
z"/>
<path fill="#F6F4FD" opacity="1.000000" stroke="none" 
	d="
M157.902863,368.698792 
	C155.546387,370.166901 153.095001,371.330139 150.227142,372.691010 
	C150.004303,372.411224 149.377060,371.623718 149.409744,371.664734 
	C145.535629,372.991272 142.269470,374.109619 138.639236,375.352631 
	C138.101425,373.825378 137.681610,372.633209 136.969910,371.040894 
	C136.463547,370.413452 136.235764,370.200409 135.994690,370.001556 
	C135.994690,370.001556 136.000153,370.000549 135.995575,370.005432 
	C136.639236,368.902985 137.436981,366.773071 137.913101,366.842682 
	C144.380707,367.788422 151.009048,364.280731 157.341614,367.536865 
	C157.580765,367.659790 157.656219,368.101013 157.902863,368.698792 
z"/>
<path fill="#5738D4" opacity="1.000000" stroke="none" 
	d="
M159.473175,373.229248 
	C159.607208,373.274170 159.796692,373.271851 160.116425,373.255127 
	C162.895569,374.026550 165.354965,374.814728 167.814362,375.602905 
	C167.814362,375.602905 168.129074,375.917328 168.346588,375.963867 
	C171.824844,379.642059 173.104736,383.835510 172.824615,388.749512 
	C172.533264,393.860474 172.850632,399.002930 172.736679,404.127960 
	C172.549362,412.552551 165.857971,418.408661 157.600357,416.850952 
	C152.903351,415.964874 150.520172,411.983185 148.775024,407.078278 
	C148.539825,406.313782 148.469009,406.150330 148.398178,405.986877 
	C148.470337,400.966736 148.542511,395.946625 148.585999,390.214111 
	C148.504257,389.329742 148.451202,389.157745 148.398163,388.985718 
	C148.468735,388.237762 148.539307,387.489838 148.607803,386.045349 
	C148.536560,384.895264 148.467422,384.441711 148.398285,383.988159 
	C149.995377,378.533875 153.163940,374.665039 159.233612,373.184540 
	C159.470993,372.885498 159.403915,372.909088 159.403915,372.909088 
	C159.403915,372.909088 159.339127,373.184296 159.473175,373.229248 
z"/>
<path fill="#5737D4" opacity="1.000000" stroke="none" 
	d="
M126.844582,376.207001 
	C126.793640,376.456604 126.877960,376.658691 127.215073,376.827423 
	C128.474136,381.229980 130.038757,385.561798 130.635132,390.023071 
	C131.201843,394.262634 130.750458,398.637573 130.756836,402.952972 
	C130.765686,408.938232 128.471603,413.544800 122.586510,416.396423 
	C111.515373,417.519745 106.714813,413.002991 106.703331,401.927002 
	C106.698494,397.262604 106.684761,392.598145 106.706490,387.933868 
	C106.756752,377.141083 111.579575,372.791504 122.800186,374.157990 
	C124.513573,375.021301 125.679077,375.614166 126.844582,376.207001 
z"/>
<path fill="#EEEAFB" opacity="1.000000" stroke="none" 
	d="
M152.752502,420.881897 
	C151.404266,421.514923 149.819244,422.426453 148.211777,422.467926 
	C144.440125,422.565338 141.035446,422.526337 137.673584,425.267792 
	C133.656723,428.543488 133.508759,422.838989 131.183212,421.276855 
	C131.755035,420.274994 132.558929,418.880920 133.257507,418.931854 
	C139.683899,419.400360 146.092056,420.119141 152.752502,420.881897 
z"/>
<path fill="#EEEAFB" opacity="1.000000" stroke="none" 
	d="
M148.241409,384.097046 
	C148.467422,384.441711 148.536560,384.895264 148.501984,385.681061 
	C148.293686,385.410828 148.189102,384.808380 148.241409,384.097046 
z"/>
<path fill="#EEEAFB" opacity="1.000000" stroke="none" 
	d="
M148.289520,406.057678 
	C148.469009,406.150330 148.539825,406.313782 148.620316,406.744202 
	C148.480286,406.716980 148.330582,406.422699 148.289520,406.057678 
z"/>
<path fill="#EEEAFB" opacity="1.000000" stroke="none" 
	d="
M148.286255,389.044403 
	C148.451202,389.157745 148.504257,389.329742 148.477722,389.759766 
	C148.245071,389.820557 148.070862,389.634644 147.954666,389.417664 
	C147.927338,389.366638 148.095901,389.210754 148.286255,389.044403 
z"/>
<path fill="#F9F8FE" opacity="1.000000" stroke="none" 
	d="
M136.149200,370.177399 
	C136.235764,370.200409 136.463547,370.413452 136.833099,370.815582 
	C136.746307,370.792786 136.518158,370.580383 136.149200,370.177399 
z"/>
<path fill="#F6F4FD" opacity="1.000000" stroke="none" 
	d="
M159.420471,372.783905 
	C159.403915,372.909088 159.470993,372.885498 159.435623,372.916107 
	C159.400253,372.946716 159.361603,372.574799 159.361603,372.574799 
	C159.361603,372.574799 159.437027,372.658722 159.420471,372.783905 
z"/>
<path fill="#F9F8FE" opacity="1.000000" stroke="none" 
	d="
M203.503387,371.492188 
	C203.509918,371.511993 203.496857,371.472412 203.503387,371.492188 
z"/>
<path fill="#E9E3FB" opacity="1.000000" stroke="none" 
	d="
M259.497253,418.506989 
	C259.490936,418.487823 259.503601,418.526154 259.497253,418.506989 
z"/>
<path fill="#E9E3FB" opacity="1.000000" stroke="none" 
	d="
M267.502594,418.495239 
	C267.508850,418.514435 267.496338,418.476074 267.502594,418.495239 
z"/>
<path fill="#E9E3FB" opacity="1.000000" stroke="none" 
	d="
M271.494385,418.498474 
	C271.513458,418.491974 271.475281,418.504944 271.494385,418.498474 
z"/>
<path fill="#E9E3FB" opacity="1.000000" stroke="none" 
	d="
M275.497253,418.506989 
	C275.490936,418.487823 275.503601,418.526154 275.497253,418.506989 
z"/>
<path fill="#F1EDFC" opacity="1.000000" stroke="none" 
	d="
M126.856277,375.771179 
	C125.679077,375.614166 124.513573,375.021301 123.178802,374.193726 
	C123.003891,373.227448 122.998245,372.495911 122.989609,371.399628 
	C124.280403,372.468353 125.574181,373.901886 126.856277,375.771179 
z"/>
<path fill="#F6F4FD" opacity="1.000000" stroke="none" 
	d="
M106.831604,373.982483 
	C106.523369,373.961182 106.300522,373.839783 106.077682,373.718353 
	C106.168800,373.608368 106.259918,373.498383 106.351036,373.388397 
	C106.539688,373.553070 106.728333,373.717743 106.831604,373.982483 
z"/>
<path fill="#E9E3FB" opacity="1.000000" stroke="none" 
	d="
M100.000443,421.999756 
	C100.000893,421.999481 99.962364,421.938934 99.980850,421.970093 
	C99.999344,422.001221 100.000000,422.000000 100.000443,421.999756 
z"/>
<path fill="#F1EDFC" opacity="1.000000" stroke="none" 
	d="
M266.445221,423.012085 
	C266.447113,422.981628 266.443329,423.042511 266.445221,423.012085 
z"/>
<path fill="#EEEAFB" opacity="1.000000" stroke="none" 
	d="
M82.497955,426.504883 
	C82.491920,426.486237 82.503983,426.523560 82.497955,426.504883 
z"/>
<path fill="#F1EDFC" opacity="1.000000" stroke="none" 
	d="
M156.505661,423.501770 
	C156.486359,423.508392 156.524963,423.495148 156.505661,423.501770 
z"/>
<path fill="#EEEAFB" opacity="1.000000" stroke="none" 
	d="
M167.785080,375.220245 
	C165.354965,374.814728 162.895569,374.026550 160.111084,373.200500 
	C164.141235,369.258514 165.651917,369.576019 167.785080,375.220245 
z"/>
</svg>