<?xml version="1.0" encoding="UTF-8" standalone="no"?>
<!DOCTYPE svg PUBLIC "-//W3C//DTD SVG 1.1//EN"
 "http://www.w3.org/Graphics/SVG/1.1/DTD/svg11.dtd">
<!-- Generated by graphviz version 12.1.1 (20240910.0053)
 -->
<!-- Title: INFRA Pages: 1 -->
<svg width="468pt" height="404pt"
 viewBox="0.00 0.00 467.65 404.00" xmlns="http://www.w3.org/2000/svg" xmlns:xlink="http://www.w3.org/1999/xlink">
<g id="graph0" class="graph" transform="scale(1 1) rotate(0) translate(4 400)">
<title>INFRA</title>
<polygon fill="white" stroke="none" points="-4,4 -4,-400 463.65,-400 463.65,4 -4,4"/>
<!-- PostgreSQL Database -->
<g id="node1" class="node">
<title>PostgreSQL Database</title>
<path fill="#ffcfb3" stroke="black" stroke-width="2" d="M244.7,-65.45C244.7,-69.07 205.55,-72 157.35,-72 109.15,-72 70,-69.07 70,-65.45 70,-65.45 70,-6.55 70,-6.55 70,-2.93 109.15,0 157.35,0 205.55,0 244.7,-2.93 244.7,-6.55 244.7,-6.55 244.7,-65.45 244.7,-65.45"/>
<path fill="none" stroke="black" stroke-width="2" d="M244.7,-65.45C244.7,-61.84 205.55,-58.91 157.35,-58.91 109.15,-58.91 70,-61.84 70,-65.45"/>
<text text-anchor="middle" x="157.35" y="-40.2" font-family="Arial" font-size="14.00">PostgreSQL Database</text>
<text text-anchor="middle" x="157.35" y="-23.4" font-family="Arial" font-size="14.00">(AWS::RDS::DBInstance)</text>
</g>
<!-- Django Backend -->
<g id="node2" class="node">
<title>Django Backend</title>
<path fill="#b7e0ff" stroke="black" stroke-width="2" d="M219.47,-180C219.47,-180 95.23,-180 95.23,-180 89.23,-180 83.23,-174 83.23,-168 83.23,-168 83.23,-120 83.23,-120 83.23,-114 89.23,-108 95.23,-108 95.23,-108 219.47,-108 219.47,-108 225.47,-108 231.47,-114 231.47,-120 231.47,-120 231.47,-168 231.47,-168 231.47,-174 225.47,-180 219.47,-180"/>
<text text-anchor="middle" x="157.35" y="-148.2" font-family="Arial" font-size="14.00">Django Backend</text>
<text text-anchor="middle" x="157.35" y="-131.4" font-family="Arial" font-size="14.00">(AWS::ECS::Service)</text>
</g>
<!-- Django Backend&#45;&gt;PostgreSQL Database -->
<g id="edge1" class="edge">
<title>Django Backend&#45;&gt;PostgreSQL Database</title>
<path fill="none" stroke="black" d="M157.35,-107.7C157.35,-99.93 157.35,-91.57 157.35,-83.43"/>
<polygon fill="black" stroke="black" points="160.85,-83.66 157.35,-73.66 153.85,-83.66 160.85,-83.66"/>
</g>
<!-- React Frontend -->
<g id="node3" class="node">
<title>React Frontend</title>
<path fill="#fff5cd" stroke="black" stroke-width="2" d="M132.7,-281.45C132.7,-285.07 102.96,-288 66.35,-288 29.74,-288 0,-285.07 0,-281.45 0,-281.45 0,-222.55 0,-222.55 0,-218.93 29.74,-216 66.35,-216 102.96,-216 132.7,-218.93 132.7,-222.55 132.7,-222.55 132.7,-281.45 132.7,-281.45"/>
<path fill="none" stroke="black" stroke-width="2" d="M132.7,-281.45C132.7,-277.84 102.96,-274.91 66.35,-274.91 29.74,-274.91 0,-277.84 0,-281.45"/>
<text text-anchor="middle" x="66.35" y="-256.2" font-family="Arial" font-size="14.00">React Frontend</text>
<text text-anchor="middle" x="66.35" y="-239.4" font-family="Arial" font-size="14.00">(AWS::S3::Bucket)</text>
</g>
<!-- React Frontend&#45;&gt;Django Backend -->
<g id="edge2" class="edge">
<title>React Frontend&#45;&gt;Django Backend</title>
<path fill="none" stroke="black" d="M96.65,-215.7C104.09,-207.03 112.15,-197.65 119.89,-188.63"/>
<polygon fill="black" stroke="black" points="122.33,-191.16 126.19,-181.29 117.02,-186.6 122.33,-191.16"/>
</g>
<!-- API Gateway -->
<g id="node4" class="node">
<title>API Gateway</title>
<path fill="#e78f81" stroke="black" stroke-width="2" d="M335.99,-288C335.99,-288 162.71,-288 162.71,-288 156.71,-288 150.71,-282 150.71,-276 150.71,-276 150.71,-228 150.71,-228 150.71,-222 156.71,-216 162.71,-216 162.71,-216 335.99,-216 335.99,-216 341.99,-216 347.99,-222 347.99,-228 347.99,-228 347.99,-276 347.99,-276 347.99,-282 341.99,-288 335.99,-288"/>
<text text-anchor="middle" x="249.35" y="-256.2" font-family="Arial" font-size="14.00">API Gateway</text>
<text text-anchor="middle" x="249.35" y="-239.4" font-family="Arial" font-size="14.00">(AWS::ApiGateway::RestApi)</text>
</g>
<!-- API Gateway&#45;&gt;Django Backend -->
<g id="edge3" class="edge">
<title>API Gateway&#45;&gt;Django Backend</title>
<path fill="none" stroke="black" d="M218.71,-215.7C211.19,-207.03 203.04,-197.65 195.22,-188.63"/>
<polygon fill="black" stroke="black" points="198.04,-186.54 188.84,-181.29 192.75,-191.13 198.04,-186.54"/>
</g>
<!-- CloudFront Distribution -->
<g id="node5" class="node">
<title>CloudFront Distribution</title>
<path fill="#e78f81" stroke="black" stroke-width="2" d="M251.38,-396C251.38,-396 63.32,-396 63.32,-396 57.32,-396 51.32,-390 51.32,-384 51.32,-384 51.32,-336 51.32,-336 51.32,-330 57.32,-324 63.32,-324 63.32,-324 251.38,-324 251.38,-324 257.38,-324 263.38,-330 263.38,-336 263.38,-336 263.38,-384 263.38,-384 263.38,-390 257.38,-396 251.38,-396"/>
<text text-anchor="middle" x="157.35" y="-364.2" font-family="Arial" font-size="14.00">CloudFront Distribution</text>
<text text-anchor="middle" x="157.35" y="-347.4" font-family="Arial" font-size="14.00">(AWS::CloudFront::Distribution)</text>
</g>
<!-- CloudFront Distribution&#45;&gt;React Frontend -->
<g id="edge4" class="edge">
<title>CloudFront Distribution&#45;&gt;React Frontend</title>
<path fill="none" stroke="black" d="M127.05,-323.7C119.6,-315.03 111.54,-305.65 103.81,-296.63"/>
<polygon fill="black" stroke="black" points="106.67,-294.6 97.5,-289.29 101.36,-299.16 106.67,-294.6"/>
</g>
<!-- CloudFront Distribution&#45;&gt;API Gateway -->
<g id="edge5" class="edge">
<title>CloudFront Distribution&#45;&gt;API Gateway</title>
<path fill="none" stroke="black" d="M187.98,-323.7C195.51,-315.03 203.66,-305.65 211.48,-296.63"/>
<polygon fill="black" stroke="black" points="213.94,-299.13 217.86,-289.29 208.66,-294.54 213.94,-299.13"/>
</g>
<!-- Cognito User Pool -->
<g id="node6" class="node">
<title>Cognito User Pool</title>
<path fill="#e6e6e6" stroke="black" stroke-width="2" d="M447.65,-396C447.65,-396 293.04,-396 293.04,-396 287.04,-396 281.04,-390 281.04,-384 281.04,-384 281.04,-336 281.04,-336 281.04,-330 287.04,-324 293.04,-324 293.04,-324 447.65,-324 447.65,-324 453.65,-324 459.65,-330 459.65,-336 459.65,-336 459.65,-384 459.65,-384 459.65,-390 453.65,-396 447.65,-396"/>
<text text-anchor="middle" x="370.35" y="-364.2" font-family="Arial" font-size="14.00">Cognito User Pool</text>
<text text-anchor="middle" x="370.35" y="-347.4" font-family="Arial" font-size="14.00">(AWS::Cognito::UserPool)</text>
</g>
</g>
</svg>
